<?xml version="1.0" encoding="UTF-8" standalone="no"?>
<!-- Created with Inkscape (http://www.inkscape.org/) -->

<svg
   xmlns:dc="http://purl.org/dc/elements/1.1/"
   xmlns:cc="http://creativecommons.org/ns#"
   xmlns:rdf="http://www.w3.org/1999/02/22-rdf-syntax-ns#"
   xmlns:svg="http://www.w3.org/2000/svg"
   xmlns="http://www.w3.org/2000/svg"
   xmlns:sodipodi="http://sodipodi.sourceforge.net/DTD/sodipodi-0.dtd"
   xmlns:inkscape="http://www.inkscape.org/namespaces/inkscape"
   width="744.09448819"
   height="1052.3622047"
   id="svg2"
   version="1.1"
   inkscape:version="0.48.2 r9819"
   sodipodi:docname="baseplate2.dxf">
  <defs
     id="defs4" />
  <sodipodi:namedview
     id="base"
     pagecolor="#ffffff"
     bordercolor="#666666"
     borderopacity="1.0"
     inkscape:pageopacity="0.0"
     inkscape:pageshadow="2"
     inkscape:zoom="1.5454545"
     inkscape:cx="-62.239585"
     inkscape:cy="114"
     inkscape:document-units="mm"
     inkscape:current-layer="layer1"
     showgrid="true"
     gridtolerance="6"
     objecttolerance="5"
     inkscape:window-width="1536"
     inkscape:window-height="801"
     inkscape:window-x="-8"
     inkscape:window-y="-8"
     inkscape:window-maximized="1">
    <inkscape:grid
       type="xygrid"
       id="grid2985"
       empspacing="5"
       visible="true"
       enabled="true"
       snapvisiblegridlinesonly="true" />
  </sodipodi:namedview>
  <metadata
     id="metadata7">
    <rdf:RDF>
      <cc:Work
         rdf:about="">
        <dc:format>image/svg+xml</dc:format>
        <dc:type
           rdf:resource="http://purl.org/dc/dcmitype/StillImage" />
        <dc:title></dc:title>
      </cc:Work>
    </rdf:RDF>
  </metadata>
  <g
     inkscape:groupmode="layer"
     id="layer2"
     inkscape:label="Layer"
     style="display:inline" />
  <g
     inkscape:label="Layer 1"
     inkscape:groupmode="layer"
     id="layer1"
     style="display:inline">
    <path
       style="fill:none;stroke:#000000;stroke-width:1.00373065;stroke-miterlimit:4;stroke-opacity:1;stroke-dasharray:none"
       d="M -180.0625 834.84375 L -180.0625 1051.875 L 0.5 1051.875 L 0.84375 1051.875 L 725.875 1051.875 L 725.875 834.875 L 0.84375 834.875 L 0.84375 834.84375 L -180.0625 834.84375 z "
       id="rect3118" />
    <rect
       style="fill:none;stroke:#000000;stroke-width:0.99449891;stroke-miterlimit:4;stroke-opacity:1;stroke-dasharray:none"
       id="rect3120-4-5-1-1-6"
       width="10.698415"
       height="21.682667"
       x="602.85944"
       y="996.68231"
       rx="0.83937633"
       ry="19.114632" />
    <rect
       style="fill:none;stroke:#000000;stroke-width:0.99449891;stroke-miterlimit:4;stroke-opacity:1;stroke-dasharray:none"
       id="rect3120-4-5-1-1-6-8"
       width="10.698415"
       height="21.682667"
       x="602.85944"
       y="930.68231"
       rx="0.83937633"
       ry="19.114632" />
    <rect
       style="fill:none;stroke:#000000;stroke-width:1;stroke-miterlimit:4;stroke-opacity:1;stroke-dasharray:none"
       id="rect3120-2-9"
       width="21.702755"
       height="10.807087"
       x="39.431107"
       y="877.55511"
       rx="1.702755"
       ry="9.5271254" />
    <rect
       style="fill:none;stroke:#000000;stroke-width:1;stroke-miterlimit:4;stroke-opacity:1;stroke-dasharray:none"
       id="rect3120-4-76-2"
       width="21.702755"
       height="10.807087"
       x="110.29726"
       y="877.55511"
       rx="1.702755"
       ry="9.5271254" />
    <rect
       style="fill:none;stroke:#000000;stroke-width:1;stroke-miterlimit:4;stroke-opacity:1;stroke-dasharray:none"
       id="rect3120-5-14-7"
       width="21.702755"
       height="10.807087"
       x="177.43111"
       y="877.55511"
       rx="1.702755"
       ry="9.5271254" />
    <rect
       style="fill:none;stroke:#000000;stroke-width:1;stroke-miterlimit:4;stroke-opacity:1;stroke-dasharray:none"
       id="rect3120-4-5-2-9"
       width="21.702755"
       height="10.807087"
       x="248.29726"
       y="877.55511"
       rx="1.702755"
       ry="9.5271254" />
    <rect
       style="fill:none;stroke:#000000;stroke-width:1;stroke-miterlimit:4;stroke-opacity:1;stroke-dasharray:none"
       id="rect3120-1-3-5"
       width="21.702755"
       height="10.807087"
       x="313.43109"
       y="877.55511"
       rx="1.702755"
       ry="9.5271254" />
    <rect
       style="fill:none;stroke:#000000;stroke-width:1;stroke-miterlimit:4;stroke-opacity:1;stroke-dasharray:none"
       id="rect3120-4-7-2-4"
       width="21.702755"
       height="10.807087"
       x="384.29724"
       y="877.55511"
       rx="1.702755"
       ry="9.5271254" />
    <rect
       style="fill:none;stroke:#000000;stroke-width:1;stroke-miterlimit:4;stroke-opacity:1;stroke-dasharray:none"
       id="rect3120-5-1-2-3"
       width="21.702755"
       height="10.807087"
       x="451.43109"
       y="877.55511"
       rx="1.702755"
       ry="9.5271254" />
    <rect
       style="fill:none;stroke:#000000;stroke-width:1;stroke-miterlimit:4;stroke-opacity:1;stroke-dasharray:none"
       id="rect3120-4-5-1-1-1"
       width="21.702755"
       height="10.807087"
       x="522.29724"
       y="877.55511"
       rx="1.702755"
       ry="9.5271254" />
    <rect
       style="fill:none;stroke:#000000;stroke-width:0.99449891;stroke-miterlimit:4;stroke-opacity:1;stroke-dasharray:none"
       id="rect3120-4-5-1-1-6-8-3-3"
       width="10.698415"
       height="21.682667"
       x="20"
       y="852.36218"
       rx="0.83937633"
       ry="19.114632" />
    <rect
       style="fill:none;stroke:#000000;stroke-width:0.99449891;stroke-miterlimit:4;stroke-opacity:1;stroke-dasharray:none"
       id="rect3120-4-5-1-1-6-8-3-4"
       width="10.698415"
       height="21.682667"
       x="20"
       y="1010.6795"
       rx="0.83937633"
       ry="19.114632" />
    <rect
       style="fill:none;stroke:#000000;stroke-width:1;stroke-miterlimit:4;stroke-opacity:1;stroke-dasharray:none"
       id="rect3120-4-5-1-1-1-1"
       width="21.702755"
       height="10.807087"
       x="593.29724"
       y="846.55511"
       rx="1.702755"
       ry="9.5271254" />
    <rect
       style="fill:none;stroke:#000000;stroke-width:1;stroke-miterlimit:4;stroke-opacity:1;stroke-dasharray:none"
       id="rect3120-4-5-1-1-1-1-3"
       width="21.702755"
       height="10.807087"
       x="658.29724"
       y="1036.5551"
       rx="1.702755"
       ry="9.5271254" />
    <path
       sodipodi:type="arc"
       style="fill:none;stroke:#000000;stroke-width:1;stroke-miterlimit:4;stroke-opacity:1;stroke-dasharray:none"
       id="path3484"
       sodipodi:cx="-10"
       sodipodi:cy="1087.3622"
       sodipodi:rx="5"
       sodipodi:ry="5"
       d="m -5,1087.3622 a 5,5 0 1 1 -10,0 5,5 0 1 1 10,0 z"
       transform="matrix(1.1274159,0,0,1.1274159,541.91124,-293.54723)" />
    <path
       sodipodi:type="arc"
       style="fill:none;stroke:#000000;stroke-width:1;stroke-miterlimit:4;stroke-opacity:1;stroke-dasharray:none"
       id="path3484-8"
       sodipodi:cx="-10"
       sodipodi:cy="1087.3622"
       sodipodi:rx="5"
       sodipodi:ry="5"
       d="m -5,1087.3622 a 5,5 0 1 1 -10,0 5,5 0 1 1 10,0 z"
       transform="matrix(1.1274159,0,0,1.1274159,541.91124,-192.20864)" />
    <path
       sodipodi:type="arc"
       style="fill:none;stroke:#000000;stroke-width:1;stroke-miterlimit:4;stroke-opacity:1;stroke-dasharray:none"
       id="path3484-2"
       sodipodi:cx="-10"
       sodipodi:cy="1087.3622"
       sodipodi:rx="5"
       sodipodi:ry="5"
       d="m -5,1087.3622 a 5,5 0 1 1 -10,0 5,5 0 1 1 10,0 z"
       transform="matrix(1.1274159,0,0,1.1274159,429.91124,-292.54723)" />
    <path
       sodipodi:type="arc"
       style="fill:none;stroke:#000000;stroke-width:1;stroke-miterlimit:4;stroke-opacity:1;stroke-dasharray:none"
       id="path3484-8-7"
       sodipodi:cx="-10"
       sodipodi:cy="1087.3622"
       sodipodi:rx="5"
       sodipodi:ry="5"
       d="m -5,1087.3622 a 5,5 0 1 1 -10,0 5,5 0 1 1 10,0 z"
       transform="matrix(1.1274159,0,0,1.1274159,429.91124,-191.20864)" />
    <rect
       style="fill:none;stroke:#000000;stroke-width:1.9470619;stroke-miterlimit:4;stroke-opacity:1;stroke-dasharray:none;display:inline"
       id="rect3120-5-14-7-3-1"
       width="90.178925"
       height="9.8600245"
       x="98.90464"
       y="968.02869"
       rx="7.0752587"
       ry="8.6922312" />
    <path
       style="fill:none;stroke:#000000;stroke-width:1px;stroke-linecap:butt;stroke-linejoin:miter;stroke-opacity:1"
       d="m -25,835.36218 0,42 25,0 0,40 -25,0 0,45 25,0 0,45.00002 -25,0 0,45"
       id="path4546"
       inkscape:connector-curvature="0"
       sodipodi:nodetypes="cccccccccc" />
    <path
       sodipodi:type="arc"
       style="fill:none;stroke:#000000;stroke-width:0.38976377;stroke-miterlimit:4;stroke-opacity:1;stroke-dasharray:none"
       id="path4550"
       sodipodi:cx="-285"
       sodipodi:cy="864.86218"
       sodipodi:rx="15"
       sodipodi:ry="17.5"
       d="m -270,864.86218 a 15,17.5 0 1 1 -30,0 15,17.5 0 1 1 30,0 z"
       transform="matrix(1.4004774,0,0,1.2004091,269.13606,-28.833411)" />
    <path
       sodipodi:type="arc"
       style="fill:none;stroke:#000000;stroke-width:0.38976377;stroke-miterlimit:4;stroke-opacity:1;stroke-dasharray:none;display:inline"
       id="path4550-2"
       sodipodi:cx="-285"
       sodipodi:cy="864.86218"
       sodipodi:rx="15"
       sodipodi:ry="17.5"
       d="m -270,864.86218 a 15,17.5 0 1 1 -30,0 15,17.5 0 1 1 30,0 z"
       transform="matrix(1.4004774,0,0,1.2004091,347.13606,-176.83341)" />
  </g>
</svg>
