<?xml version="1.0" encoding="UTF-8" standalone="no"?>
<!-- Created with Inkscape (http://www.inkscape.org/) -->

<svg
   xmlns:dc="http://purl.org/dc/elements/1.1/"
   xmlns:cc="http://creativecommons.org/ns#"
   xmlns:rdf="http://www.w3.org/1999/02/22-rdf-syntax-ns#"
   xmlns:svg="http://www.w3.org/2000/svg"
   xmlns="http://www.w3.org/2000/svg"
   xmlns:sodipodi="http://sodipodi.sourceforge.net/DTD/sodipodi-0.dtd"
   xmlns:inkscape="http://www.inkscape.org/namespaces/inkscape"
   width="744.09448819"
   height="1052.3622047"
   id="svg2"
   version="1.1"
   inkscape:version="0.48.2 r9819"
   sodipodi:docname="baseplate2_Full.svg">
  <defs
     id="defs4" />
  <sodipodi:namedview
     id="base"
     pagecolor="#ffffff"
     bordercolor="#666666"
     borderopacity="1.0"
     inkscape:pageopacity="0.0"
     inkscape:pageshadow="2"
     inkscape:zoom="1.6177631"
     inkscape:cx="61.820019"
     inkscape:cy="101.32098"
     inkscape:document-units="mm"
     inkscape:current-layer="layer1"
     showgrid="true"
     gridtolerance="6"
     objecttolerance="5"
     inkscape:window-width="1536"
     inkscape:window-height="801"
     inkscape:window-x="-8"
     inkscape:window-y="-8"
     inkscape:window-maximized="1">
    <inkscape:grid
       type="xygrid"
       id="grid2985"
       empspacing="5"
       visible="true"
       enabled="true"
       snapvisiblegridlinesonly="true" />
  </sodipodi:namedview>
  <metadata
     id="metadata7">
    <rdf:RDF>
      <cc:Work
         rdf:about="">
        <dc:format>image/svg+xml</dc:format>
        <dc:type
           rdf:resource="http://purl.org/dc/dcmitype/StillImage" />
        <dc:title></dc:title>
      </cc:Work>
    </rdf:RDF>
  </metadata>
  <g
     inkscape:groupmode="layer"
     id="layer2"
     inkscape:label="Layer"
     style="display:inline" />
  <g
     inkscape:label="Layer 1"
     inkscape:groupmode="layer"
     id="layer1"
     style="display:inline">
    <path
       style="fill:none;stroke:#000000;stroke-width:1.00371659;stroke-miterlimit:4;stroke-opacity:1;stroke-dasharray:none"
       d="M -21.40625 834.71875 L -21.40625 875.59375 L 0.5 875.59375 L 0.5 910.5 L -20.375 910.5 L -20.375 945.5625 L 0.5 945.5625 L 0.5 981.875 L -19.78125 981.875 L -19.78125 1016.9062 L 0.5 1016.9062 L 0.5 1051.875 L 725.875 1051.875 L 725.875 834.875 L 1.09375 834.875 L 1.09375 834.71875 L -21.40625 834.71875 z "
       id="rect3118" />
    <rect
       style="fill:none;stroke:#000000;stroke-width:0.99449891;stroke-miterlimit:4;stroke-opacity:1;stroke-dasharray:none"
       id="rect3120-4-5-1-1-6"
       width="10.698415"
       height="21.682667"
       x="602.85944"
       y="996.68231"
       rx="0.83937633"
       ry="19.114632" />
    <rect
       style="fill:none;stroke:#000000;stroke-width:0.99449891;stroke-miterlimit:4;stroke-opacity:1;stroke-dasharray:none"
       id="rect3120-4-5-1-1-6-8"
       width="10.698415"
       height="21.682667"
       x="602.85944"
       y="930.68231"
       rx="0.83937633"
       ry="19.114632" />
    <rect
       style="fill:none;stroke:#000000;stroke-width:1;stroke-miterlimit:4;stroke-opacity:1;stroke-dasharray:none"
       id="rect3120-2-9"
       width="21.702755"
       height="10.807087"
       x="39.431107"
       y="877.55511"
       rx="1.702755"
       ry="9.5271254" />
    <rect
       style="fill:none;stroke:#000000;stroke-width:1;stroke-miterlimit:4;stroke-opacity:1;stroke-dasharray:none"
       id="rect3120-4-76-2"
       width="21.702755"
       height="10.807087"
       x="110.29726"
       y="877.55511"
       rx="1.702755"
       ry="9.5271254" />
    <rect
       style="fill:none;stroke:#000000;stroke-width:1;stroke-miterlimit:4;stroke-opacity:1;stroke-dasharray:none"
       id="rect3120-5-14-7"
       width="21.702755"
       height="10.807087"
       x="177.43111"
       y="877.55511"
       rx="1.702755"
       ry="9.5271254" />
    <rect
       style="fill:none;stroke:#000000;stroke-width:1;stroke-miterlimit:4;stroke-opacity:1;stroke-dasharray:none"
       id="rect3120-4-5-2-9"
       width="21.702755"
       height="10.807087"
       x="248.29726"
       y="877.55511"
       rx="1.702755"
       ry="9.5271254" />
    <rect
       style="fill:none;stroke:#000000;stroke-width:1;stroke-miterlimit:4;stroke-opacity:1;stroke-dasharray:none"
       id="rect3120-1-3-5"
       width="21.702755"
       height="10.807087"
       x="313.43109"
       y="877.55511"
       rx="1.702755"
       ry="9.5271254" />
    <rect
       style="fill:none;stroke:#000000;stroke-width:1;stroke-miterlimit:4;stroke-opacity:1;stroke-dasharray:none"
       id="rect3120-4-7-2-4"
       width="21.702755"
       height="10.807087"
       x="384.29724"
       y="877.55511"
       rx="1.702755"
       ry="9.5271254" />
    <rect
       style="fill:none;stroke:#000000;stroke-width:1;stroke-miterlimit:4;stroke-opacity:1;stroke-dasharray:none"
       id="rect3120-5-1-2-3"
       width="21.702755"
       height="10.807087"
       x="451.43109"
       y="877.55511"
       rx="1.702755"
       ry="9.5271254" />
    <rect
       style="fill:none;stroke:#000000;stroke-width:1;stroke-miterlimit:4;stroke-opacity:1;stroke-dasharray:none"
       id="rect3120-4-5-1-1-1"
       width="21.702755"
       height="10.807087"
       x="522.29724"
       y="877.55511"
       rx="1.702755"
       ry="9.5271254" />
    <rect
       style="fill:none;stroke:#000000;stroke-width:0.99449891;stroke-miterlimit:4;stroke-opacity:1;stroke-dasharray:none"
       id="rect3120-4-5-1-1-6-8-3-3"
       width="10.698415"
       height="21.682667"
       x="20"
       y="852.36218"
       rx="0.83937633"
       ry="19.114632" />
    <rect
       style="fill:none;stroke:#000000;stroke-width:0.99449891;stroke-miterlimit:4;stroke-opacity:1;stroke-dasharray:none"
       id="rect3120-4-5-1-1-6-8-3-4"
       width="10.698415"
       height="21.682667"
       x="20"
       y="1010.6795"
       rx="0.83937633"
       ry="19.114632" />
    <rect
       style="fill:none;stroke:#000000;stroke-width:1;stroke-miterlimit:4;stroke-opacity:1;stroke-dasharray:none"
       id="rect3120-4-5-1-1-1-1"
       width="21.702755"
       height="10.807087"
       x="593.29724"
       y="846.55511"
       rx="1.702755"
       ry="9.5271254" />
    <rect
       style="fill:none;stroke:#000000;stroke-width:1;stroke-miterlimit:4;stroke-opacity:1;stroke-dasharray:none"
       id="rect3120-4-5-1-1-1-1-3"
       width="21.702755"
       height="10.807087"
       x="658.29724"
       y="1036.5551"
       rx="1.702755"
       ry="9.5271254" />
    <path
       sodipodi:type="arc"
       style="fill:none;stroke:#000000;stroke-width:1;stroke-miterlimit:4;stroke-opacity:1;stroke-dasharray:none"
       id="path3484"
       sodipodi:cx="-10"
       sodipodi:cy="1087.3622"
       sodipodi:rx="5"
       sodipodi:ry="5"
       d="m -5,1087.3622 a 5,5 0 1 1 -10,0 5,5 0 1 1 10,0 z"
       transform="matrix(1.1274159,0,0,1.1274159,541.91124,-293.54723)" />
    <path
       sodipodi:type="arc"
       style="fill:none;stroke:#000000;stroke-width:1;stroke-miterlimit:4;stroke-opacity:1;stroke-dasharray:none"
       id="path3484-8"
       sodipodi:cx="-10"
       sodipodi:cy="1087.3622"
       sodipodi:rx="5"
       sodipodi:ry="5"
       d="m -5,1087.3622 a 5,5 0 1 1 -10,0 5,5 0 1 1 10,0 z"
       transform="matrix(1.1274159,0,0,1.1274159,541.91124,-192.20864)" />
    <path
       sodipodi:type="arc"
       style="fill:none;stroke:#000000;stroke-width:1;stroke-miterlimit:4;stroke-opacity:1;stroke-dasharray:none"
       id="path3484-2"
       sodipodi:cx="-10"
       sodipodi:cy="1087.3622"
       sodipodi:rx="5"
       sodipodi:ry="5"
       d="m -5,1087.3622 a 5,5 0 1 1 -10,0 5,5 0 1 1 10,0 z"
       transform="matrix(1.1274159,0,0,1.1274159,429.91124,-292.54723)" />
    <path
       sodipodi:type="arc"
       style="fill:none;stroke:#000000;stroke-width:1;stroke-miterlimit:4;stroke-opacity:1;stroke-dasharray:none"
       id="path3484-8-7"
       sodipodi:cx="-10"
       sodipodi:cy="1087.3622"
       sodipodi:rx="5"
       sodipodi:ry="5"
       d="m -5,1087.3622 a 5,5 0 1 1 -10,0 5,5 0 1 1 10,0 z"
       transform="matrix(1.1274159,0,0,1.1274159,429.91124,-191.20864)" />
    <path
       sodipodi:type="arc"
       style="fill:none;stroke:#000000;stroke-width:1;stroke-miterlimit:4;stroke-opacity:1;stroke-dasharray:none;display:inline"
       id="path3484-2-7"
       sodipodi:cx="-10"
       sodipodi:cy="1087.3622"
       sodipodi:rx="5"
       sodipodi:ry="5"
       d="m -5,1087.3622 a 5,5 0 1 1 -10,0 5,5 0 1 1 10,0 z"
       transform="matrix(1.1274159,0,0,1.1274159,240.27416,-241.89211)" />
    <path
       sodipodi:type="arc"
       style="fill:none;stroke:#000000;stroke-width:1;stroke-miterlimit:4;stroke-opacity:1;stroke-dasharray:none;display:inline"
       id="path3484-2-7-9"
       sodipodi:cx="-10"
       sodipodi:cy="1087.3622"
       sodipodi:rx="5"
       sodipodi:ry="5"
       d="m -5,1087.3622 a 5,5 0 1 1 -10,0 5,5 0 1 1 10,0 z"
       transform="matrix(1.1274159,0,0,1.1274159,348.60093,-184.93699)" />
    <rect
       style="fill:none;stroke:#000000;stroke-width:1.9470619;stroke-miterlimit:4;stroke-opacity:1;stroke-dasharray:none;display:inline"
       id="rect3120-5-14-7-3-1"
       width="90.178925"
       height="9.8600245"
       x="98.90464"
       y="968.02869"
       rx="7.0752587"
       ry="8.6922312" />
    <path
       style="fill:none;stroke:#000000;stroke-width:0.38976377;stroke-miterlimit:4;stroke-opacity:1;stroke-dasharray:none"
       d="m -209.61142,835.875 0,216 158.437483,0 0,-0.2188 21.062501,0 0,-34.0312 -21.062501,0 0,-36.84375 21.062501,0 0,-34 -21.062501,0 0,-36.875 21.062501,0 0,-34 -21.062501,0 0,-40.03125 -158.437483,0 z"
       id="rect3638"
       inkscape:connector-curvature="0" />
    <path
       sodipodi:type="arc"
       style="fill:none;stroke:#000000;stroke-width:0.38976377;stroke-miterlimit:4;stroke-opacity:1;stroke-dasharray:none"
       id="path4522"
       sodipodi:cx="-292.5"
       sodipodi:cy="837.36218"
       sodipodi:rx="17.5"
       sodipodi:ry="15"
       d="m -275,837.36218 a 17.5,15 0 1 1 -35,0 17.5,15 0 1 1 35,0 z"
       transform="matrix(1.2254177,0,0,1.429654,197.87949,-179.77601)" />
    <path
       sodipodi:type="arc"
       style="fill:none;stroke:#000000;stroke-width:0.38976377;stroke-miterlimit:4;stroke-opacity:1;stroke-dasharray:none;display:inline"
       id="path4522-0"
       sodipodi:cx="-292.5"
       sodipodi:cy="837.36218"
       sodipodi:rx="17.5"
       sodipodi:ry="15"
       d="m -275,837.36218 a 17.5,15 0 1 1 -35,0 17.5,15 0 1 1 35,0 z"
       transform="matrix(1.2254177,0,0,1.429654,278.87949,-331.77601)" />
  </g>
</svg>
