999
DXF created by Inkscape
  0
SECTION
  2
HEADER
  9
$ACADVER
  1
AC1014
  9
$HANDSEED
  5
FFFF
  9
$MEASUREMENT
 70
     1
  0
ENDSEC
  0
SECTION
  2
TABLES
  0
TABLE
  2
VPORT
  5
8
330
0
100
AcDbSymbolTable
 70
     4
  0
VPORT
  5
2E
330
8
100
AcDbSymbolTableRecord
100
AcDbViewportTableRecord
  2
*ACTIVE
 70
     0
 10
0.0
 20
0.0
 11
1.0
 21
1.0
 12
210.0
 22
148.5
 13
0.0
 23
0.0
 14
10.0
 24
10.0
 15
10.0
 25
10.0
 16
0.0
 26
0.0
 36
1.0
 17
0.0
 27
0.0
 37
0.0
 40
341.0
 41
1.24
 42
50.0
 43
0.0
 44
0.0
 50
0.0
 51
0.0
 71
     0
 72
   100
 73
     1
 74
     3
 75
     0
 76
     0
 77
     0
 78
     0
  0
ENDTAB
  0
TABLE
  2
LTYPE
  5
5
330
0
100
AcDbSymbolTable
 70
     1
  0
LTYPE
  5
14
330
5
100
AcDbSymbolTableRecord
100
AcDbLinetypeTableRecord
  2
BYBLOCK
 70
     0
  3

 72
    65
 73
     0
 40
0.0
  0
LTYPE
  5
15
330
5
100
AcDbSymbolTableRecord
100
AcDbLinetypeTableRecord
  2
BYLAYER
 70
     0
  3

 72
    65
 73
     0
 40
0.0
  0
LTYPE
  5
16
330
5
100
AcDbSymbolTableRecord
100
AcDbLinetypeTableRecord
  2
CONTINUOUS
 70
     0
  3
Solid line
 72
    65
 73
     0
 40
0.0
  0
ENDTAB
  0
TABLE
  2
LAYER
  5
2
100
AcDbSymbolTable
 70
3
  0
LAYER
  5
50
100
AcDbSymbolTableRecord
100
AcDbLayerTableRecord
  2
0
 70
0
  6
CONTINUOUS
  0
LAYER
  5
51
100
AcDbSymbolTableRecord
100
AcDbLayerTableRecord
  2
Layer
 70
0
  6
CONTINUOUS
  0
LAYER
  5
52
100
AcDbSymbolTableRecord
100
AcDbLayerTableRecord
  2
Layer_1
 70
0
  6
CONTINUOUS
  0
ENDTAB
  0
TABLE
  2
STYLE
  5
3
330
0
100
AcDbSymbolTable
 70
     1
  0
STYLE
  5
11
330
3
100
AcDbSymbolTableRecord
100
AcDbTextStyleTableRecord
  2
STANDARD
 70
     0
 40
0.0
 41
1.0
 50
0.0
 71
     0
 42
2.5
  3
txt
  4

  0
ENDTAB
  0
TABLE
  2
VIEW
  5
6
330
0
100
AcDbSymbolTable
 70
     0
  0
ENDTAB
  0
TABLE
  2
UCS
  5
7
330
0
100
AcDbSymbolTable
 70
     0
  0
ENDTAB
  0
TABLE
  2
APPID
  5
9
330
0
100
AcDbSymbolTable
 70
     2
  0
APPID
  5
12
330
9
100
AcDbSymbolTableRecord
100
AcDbRegAppTableRecord
  2
ACAD
 70
     0
  0
ENDTAB
  0
TABLE
  2
DIMSTYLE
  5
A
330
0
100
AcDbSymbolTable
 70
     1
  0
DIMSTYLE
105
27
330
A
100
AcDbSymbolTableRecord
100
AcDbDimStyleTableRecord
  2
ISO-25
 70
     0
  3

  4

  5

  6

  7

 40
1.0
 41
2.5
 42
0.625
 43
3.75
 44
1.25
 45
0.0
 46
0.0
 47
0.0
 48
0.0
140
2.5
141
2.5
142
0.0
143
0.03937007874016
144
1.0
145
0.0
146
1.0
147
0.625
 71
     0
 72
     0
 73
     0
 74
     0
 75
     0
 76
     0
 77
     1
 78
     8
170
     0
171
     3
172
     1
173
     0
174
     0
175
     0
176
     0
177
     0
178
     0
270
     2
271
     2
272
     2
273
     2
274
     3
340
11
275
     0
280
     0
281
     0
282
     0
283
     0
284
     8
285
     0
286
     0
287
     3
288
     0
  0
ENDTAB
  0
TABLE
  2
BLOCK_RECORD
  5
1
330
0
100
AcDbSymbolTable
 70
     1
  0
BLOCK_RECORD
  5
1F
330
1
100
AcDbSymbolTableRecord
100
AcDbBlockTableRecord
  2
*MODEL_SPACE
  0
BLOCK_RECORD
  5
1B
330
1
100
AcDbSymbolTableRecord
100
AcDbBlockTableRecord
  2
*PAPER_SPACE
  0
ENDTAB
  0
ENDSEC
  0
SECTION
  2
BLOCKS
  0
BLOCK
  5
20
330
1F
100
AcDbEntity
  8
0
100
AcDbBlockBegin
  2
*MODEL_SPACE
 70
     0
 10
0.0
 20
0.0
 30
0.0
  3
*MODEL_SPACE
  1

  0
ENDBLK
  5
21
330
1F
100
AcDbEntity
  8
0
100
AcDbBlockEnd
  0
BLOCK
  5
1C
330
1B
100
AcDbEntity
 67
     1
  8
0
100
AcDbBlockBegin
  2
*PAPER_SPACE
  1

  0
ENDBLK
  5
1D
330
1B
100
AcDbEntity
 67
     1
  8
0
100
AcDbBlockEnd
  0
ENDSEC
  0
SECTION
  2
ENTITIES
  0
LWPOLYLINE
  5
100
100
AcDbEntity
  8
Layer_1
 62
7
100
AcDbPolyline
 90
10
 70
0
 10
-50.817639
 20
61.388542
 30
0.0
 10
-50.817639
 20
0.137500
 30
0.0
 10
0.141111
 20
0.137500
 30
0.0
 10
0.238125
 20
0.137500
 30
0.0
 10
204.858056
 20
0.137500
 30
0.0
 10
204.858056
 20
61.379722
 30
0.0
 10
0.238125
 20
61.379722
 30
0.0
 10
0.238125
 20
61.388542
 30
0.0
 10
-50.817639
 20
61.388542
 30
0.0
 10
-50.817639
 20
61.388542
 30
0.0
  0
LWPOLYLINE
  5
101
100
AcDbEntity
  8
Layer_1
 62
7
100
AcDbPolyline
 90
5
 70
0
 10
170.140331
 20
15.714104
 30
0.0
 10
173.159661
 20
15.714104
 30
0.0
 10
173.159661
 20
9.594773
 30
0.0
 10
170.140331
 20
9.594773
 30
0.0
 10
170.140331
 20
15.714104
 30
0.0
  0
LWPOLYLINE
  5
102
100
AcDbEntity
  8
Layer_1
 62
7
100
AcDbPolyline
 90
5
 70
0
 10
170.140331
 20
34.340770
 30
0.0
 10
173.159661
 20
34.340770
 30
0.0
 10
173.159661
 20
28.221440
 30
0.0
 10
170.140331
 20
28.221440
 30
0.0
 10
170.140331
 20
34.340770
 30
0.0
  0
LWPOLYLINE
  5
103
100
AcDbEntity
  8
Layer_1
 62
7
100
AcDbPolyline
 90
5
 70
0
 10
11.128335
 20
49.334447
 30
0.0
 10
17.253334
 20
49.334447
 30
0.0
 10
17.253334
 20
46.284447
 30
0.0
 10
11.128335
 20
46.284447
 30
0.0
 10
11.128335
 20
49.334447
 30
0.0
  0
LWPOLYLINE
  5
104
100
AcDbEntity
  8
Layer_1
 62
7
100
AcDbPolyline
 90
5
 70
0
 10
31.128338
 20
49.334447
 30
0.0
 10
37.253338
 20
49.334447
 30
0.0
 10
37.253338
 20
46.284447
 30
0.0
 10
31.128338
 20
46.284447
 30
0.0
 10
31.128338
 20
49.334447
 30
0.0
  0
LWPOLYLINE
  5
105
100
AcDbEntity
  8
Layer_1
 62
7
100
AcDbPolyline
 90
5
 70
0
 10
50.075002
 20
49.334447
 30
0.0
 10
56.200002
 20
49.334447
 30
0.0
 10
56.200002
 20
46.284447
 30
0.0
 10
50.075002
 20
46.284447
 30
0.0
 10
50.075002
 20
49.334447
 30
0.0
  0
LWPOLYLINE
  5
106
100
AcDbEntity
  8
Layer_1
 62
7
100
AcDbPolyline
 90
5
 70
0
 10
70.075004
 20
49.334447
 30
0.0
 10
76.200004
 20
49.334447
 30
0.0
 10
76.200004
 20
46.284447
 30
0.0
 10
70.075004
 20
46.284447
 30
0.0
 10
70.075004
 20
49.334447
 30
0.0
  0
LWPOLYLINE
  5
107
100
AcDbEntity
  8
Layer_1
 62
7
100
AcDbPolyline
 90
5
 70
0
 10
88.457219
 20
49.334447
 30
0.0
 10
94.582218
 20
49.334447
 30
0.0
 10
94.582218
 20
46.284447
 30
0.0
 10
88.457219
 20
46.284447
 30
0.0
 10
88.457219
 20
49.334447
 30
0.0
  0
LWPOLYLINE
  5
108
100
AcDbEntity
  8
Layer_1
 62
7
100
AcDbPolyline
 90
5
 70
0
 10
108.457221
 20
49.334447
 30
0.0
 10
114.582221
 20
49.334447
 30
0.0
 10
114.582221
 20
46.284447
 30
0.0
 10
108.457221
 20
46.284447
 30
0.0
 10
108.457221
 20
49.334447
 30
0.0
  0
LWPOLYLINE
  5
109
100
AcDbEntity
  8
Layer_1
 62
7
100
AcDbPolyline
 90
5
 70
0
 10
127.403885
 20
49.334447
 30
0.0
 10
133.528885
 20
49.334447
 30
0.0
 10
133.528885
 20
46.284447
 30
0.0
 10
127.403885
 20
46.284447
 30
0.0
 10
127.403885
 20
49.334447
 30
0.0
  0
LWPOLYLINE
  5
10a
100
AcDbEntity
  8
Layer_1
 62
7
100
AcDbPolyline
 90
5
 70
0
 10
147.403888
 20
49.334447
 30
0.0
 10
153.528887
 20
49.334447
 30
0.0
 10
153.528887
 20
46.284447
 30
0.0
 10
147.403888
 20
46.284447
 30
0.0
 10
147.403888
 20
49.334447
 30
0.0
  0
LWPOLYLINE
  5
10b
100
AcDbEntity
  8
Layer_1
 62
7
100
AcDbPolyline
 90
5
 70
0
 10
5.644444
 20
56.444451
 30
0.0
 10
8.663775
 20
56.444451
 30
0.0
 10
8.663775
 20
50.325121
 30
0.0
 10
5.644444
 20
50.325121
 30
0.0
 10
5.644444
 20
56.444451
 30
0.0
  0
LWPOLYLINE
  5
10c
100
AcDbEntity
  8
Layer_1
 62
7
100
AcDbPolyline
 90
5
 70
0
 10
5.644444
 20
11.763786
 30
0.0
 10
8.663775
 20
11.763786
 30
0.0
 10
8.663775
 20
5.644455
 30
0.0
 10
5.644444
 20
5.644455
 30
0.0
 10
5.644444
 20
11.763786
 30
0.0
  0
LWPOLYLINE
  5
10d
100
AcDbEntity
  8
Layer_1
 62
7
100
AcDbPolyline
 90
5
 70
0
 10
167.441666
 20
58.083336
 30
0.0
 10
173.566665
 20
58.083336
 30
0.0
 10
173.566665
 20
55.033336
 30
0.0
 10
167.441666
 20
55.033336
 30
0.0
 10
167.441666
 20
58.083336
 30
0.0
  0
SPLINE
  5
10e
100
AcDbEntity
  8
Layer_1
 62
7
100
AcDbSpline
 70
8
 71
3
 72
8
 73
4
 74
0
 40
0
 40
0
 40
0
 40
0
 40
1
 40
1
 40
1
 40
1
 10
151.348485
 20
33.866667
 30
0.0
 10
151.348485
 20
33.298290
 30
0.0
 10
151.045260
 20
32.773088
 30
0.0
 10
150.553031
 20
32.488899
 30
0.0
  0
SPLINE
  5
10f
100
AcDbEntity
  8
Layer_1
 62
7
100
AcDbSpline
 70
8
 71
3
 72
8
 73
4
 74
0
 40
0
 40
0
 40
0
 40
0
 40
1
 40
1
 40
1
 40
1
 10
150.553031
 20
32.488899
 30
0.0
 10
150.060802
 20
32.204711
 30
0.0
 10
149.454351
 20
32.204711
 30
0.0
 10
148.962122
 20
32.488899
 30
0.0
  0
SPLINE
  5
110
100
AcDbEntity
  8
Layer_1
 62
7
100
AcDbSpline
 70
8
 71
3
 72
8
 73
4
 74
0
 40
0
 40
0
 40
0
 40
0
 40
1
 40
1
 40
1
 40
1
 10
148.962122
 20
32.488899
 30
0.0
 10
148.469893
 20
32.773088
 30
0.0
 10
148.166667
 20
33.298290
 30
0.0
 10
148.166667
 20
33.866667
 30
0.0
  0
SPLINE
  5
111
100
AcDbEntity
  8
Layer_1
 62
7
100
AcDbSpline
 70
8
 71
3
 72
8
 73
4
 74
0
 40
0
 40
0
 40
0
 40
0
 40
1
 40
1
 40
1
 40
1
 10
148.166667
 20
33.866667
 30
0.0
 10
148.166667
 20
34.435044
 30
0.0
 10
148.469893
 20
34.960246
 30
0.0
 10
148.962122
 20
35.244435
 30
0.0
  0
SPLINE
  5
112
100
AcDbEntity
  8
Layer_1
 62
7
100
AcDbSpline
 70
8
 71
3
 72
8
 73
4
 74
0
 40
0
 40
0
 40
0
 40
0
 40
1
 40
1
 40
1
 40
1
 10
148.962122
 20
35.244435
 30
0.0
 10
149.454351
 20
35.528623
 30
0.0
 10
150.060802
 20
35.528623
 30
0.0
 10
150.553031
 20
35.244435
 30
0.0
  0
SPLINE
  5
113
100
AcDbEntity
  8
Layer_1
 62
7
100
AcDbSpline
 70
8
 71
3
 72
8
 73
4
 74
0
 40
0
 40
0
 40
0
 40
0
 40
1
 40
1
 40
1
 40
1
 10
150.553031
 20
35.244435
 30
0.0
 10
151.045260
 20
34.960246
 30
0.0
 10
151.348485
 20
34.435044
 30
0.0
 10
151.348485
 20
33.866667
 30
0.0
  0
LWPOLYLINE
  5
114
100
AcDbEntity
  8
Layer_1
 62
7
100
AcDbPolyline
 90
5
 70
0
 10
185.786110
 20
4.461116
 30
0.0
 10
191.911110
 20
4.461116
 30
0.0
 10
191.911110
 20
1.411116
 30
0.0
 10
185.786110
 20
1.411116
 30
0.0
 10
185.786110
 20
4.461116
 30
0.0
  0
SPLINE
  5
115
100
AcDbEntity
  8
Layer_1
 62
7
100
AcDbSpline
 70
8
 71
3
 72
8
 73
4
 74
0
 40
0
 40
0
 40
0
 40
0
 40
1
 40
1
 40
1
 40
1
 10
151.348485
 20
5.266665
 30
0.0
 10
151.348485
 20
4.698288
 30
0.0
 10
151.045260
 20
4.173086
 30
0.0
 10
150.553031
 20
3.888897
 30
0.0
  0
SPLINE
  5
116
100
AcDbEntity
  8
Layer_1
 62
7
100
AcDbSpline
 70
8
 71
3
 72
8
 73
4
 74
0
 40
0
 40
0
 40
0
 40
0
 40
1
 40
1
 40
1
 40
1
 10
150.553031
 20
3.888897
 30
0.0
 10
150.060802
 20
3.604709
 30
0.0
 10
149.454351
 20
3.604709
 30
0.0
 10
148.962122
 20
3.888897
 30
0.0
  0
SPLINE
  5
117
100
AcDbEntity
  8
Layer_1
 62
7
100
AcDbSpline
 70
8
 71
3
 72
8
 73
4
 74
0
 40
0
 40
0
 40
0
 40
0
 40
1
 40
1
 40
1
 40
1
 10
148.962122
 20
3.888897
 30
0.0
 10
148.469893
 20
4.173086
 30
0.0
 10
148.166667
 20
4.698288
 30
0.0
 10
148.166667
 20
5.266665
 30
0.0
  0
SPLINE
  5
118
100
AcDbEntity
  8
Layer_1
 62
7
100
AcDbSpline
 70
8
 71
3
 72
8
 73
4
 74
0
 40
0
 40
0
 40
0
 40
0
 40
1
 40
1
 40
1
 40
1
 10
148.166667
 20
5.266665
 30
0.0
 10
148.166667
 20
5.835042
 30
0.0
 10
148.469893
 20
6.360244
 30
0.0
 10
148.962122
 20
6.644433
 30
0.0
  0
SPLINE
  5
119
100
AcDbEntity
  8
Layer_1
 62
7
100
AcDbSpline
 70
8
 71
3
 72
8
 73
4
 74
0
 40
0
 40
0
 40
0
 40
0
 40
1
 40
1
 40
1
 40
1
 10
148.962122
 20
6.644433
 30
0.0
 10
149.454351
 20
6.928621
 30
0.0
 10
150.060802
 20
6.928621
 30
0.0
 10
150.553031
 20
6.644433
 30
0.0
  0
SPLINE
  5
11a
100
AcDbEntity
  8
Layer_1
 62
7
100
AcDbSpline
 70
8
 71
3
 72
8
 73
4
 74
0
 40
0
 40
0
 40
0
 40
0
 40
1
 40
1
 40
1
 40
1
 10
150.553031
 20
6.644433
 30
0.0
 10
151.045260
 20
6.360244
 30
0.0
 10
151.348485
 20
5.835042
 30
0.0
 10
151.348485
 20
5.266665
 30
0.0
  0
LWPOLYLINE
  5
11b
100
AcDbEntity
  8
Layer_1
 62
7
100
AcDbPolyline
 90
2
 70
0
 10
151.348485
 20
33.866667
 30
0.0
 10
151.348485
 20
33.866667
 30
0.0
  0
SPLINE
  5
11c
100
AcDbEntity
  8
Layer_1
 62
7
100
AcDbSpline
 70
8
 71
3
 72
8
 73
4
 74
0
 40
0
 40
0
 40
0
 40
0
 40
1
 40
1
 40
1
 40
1
 10
119.739596
 20
33.584445
 30
0.0
 10
119.739596
 20
33.016068
 30
0.0
 10
119.436371
 20
32.490866
 30
0.0
 10
118.944142
 20
32.206677
 30
0.0
  0
SPLINE
  5
11d
100
AcDbEntity
  8
Layer_1
 62
7
100
AcDbSpline
 70
8
 71
3
 72
8
 73
4
 74
0
 40
0
 40
0
 40
0
 40
0
 40
1
 40
1
 40
1
 40
1
 10
118.944142
 20
32.206677
 30
0.0
 10
118.451913
 20
31.922489
 30
0.0
 10
117.845462
 20
31.922489
 30
0.0
 10
117.353233
 20
32.206677
 30
0.0
  0
SPLINE
  5
11e
100
AcDbEntity
  8
Layer_1
 62
7
100
AcDbSpline
 70
8
 71
3
 72
8
 73
4
 74
0
 40
0
 40
0
 40
0
 40
0
 40
1
 40
1
 40
1
 40
1
 10
117.353233
 20
32.206677
 30
0.0
 10
116.861004
 20
32.490866
 30
0.0
 10
116.557778
 20
33.016068
 30
0.0
 10
116.557778
 20
33.584445
 30
0.0
  0
SPLINE
  5
11f
100
AcDbEntity
  8
Layer_1
 62
7
100
AcDbSpline
 70
8
 71
3
 72
8
 73
4
 74
0
 40
0
 40
0
 40
0
 40
0
 40
1
 40
1
 40
1
 40
1
 10
116.557778
 20
33.584445
 30
0.0
 10
116.557778
 20
34.152822
 30
0.0
 10
116.861004
 20
34.678024
 30
0.0
 10
117.353233
 20
34.962213
 30
0.0
  0
SPLINE
  5
120
100
AcDbEntity
  8
Layer_1
 62
7
100
AcDbSpline
 70
8
 71
3
 72
8
 73
4
 74
0
 40
0
 40
0
 40
0
 40
0
 40
1
 40
1
 40
1
 40
1
 10
117.353233
 20
34.962213
 30
0.0
 10
117.845462
 20
35.246401
 30
0.0
 10
118.451913
 20
35.246401
 30
0.0
 10
118.944142
 20
34.962213
 30
0.0
  0
SPLINE
  5
121
100
AcDbEntity
  8
Layer_1
 62
7
100
AcDbSpline
 70
8
 71
3
 72
8
 73
4
 74
0
 40
0
 40
0
 40
0
 40
0
 40
1
 40
1
 40
1
 40
1
 10
118.944142
 20
34.962213
 30
0.0
 10
119.436371
 20
34.678024
 30
0.0
 10
119.739596
 20
34.152822
 30
0.0
 10
119.739596
 20
33.584445
 30
0.0
  0
LWPOLYLINE
  5
122
100
AcDbEntity
  8
Layer_1
 62
7
100
AcDbPolyline
 90
2
 70
0
 10
151.348485
 20
5.266665
 30
0.0
 10
151.348485
 20
5.266665
 30
0.0
  0
SPLINE
  5
123
100
AcDbEntity
  8
Layer_1
 62
7
100
AcDbSpline
 70
8
 71
3
 72
8
 73
4
 74
0
 40
0
 40
0
 40
0
 40
0
 40
1
 40
1
 40
1
 40
1
 10
119.739596
 20
4.984443
 30
0.0
 10
119.739596
 20
4.416066
 30
0.0
 10
119.436371
 20
3.890864
 30
0.0
 10
118.944142
 20
3.606675
 30
0.0
  0
SPLINE
  5
124
100
AcDbEntity
  8
Layer_1
 62
7
100
AcDbSpline
 70
8
 71
3
 72
8
 73
4
 74
0
 40
0
 40
0
 40
0
 40
0
 40
1
 40
1
 40
1
 40
1
 10
118.944142
 20
3.606675
 30
0.0
 10
118.451913
 20
3.322487
 30
0.0
 10
117.845462
 20
3.322487
 30
0.0
 10
117.353233
 20
3.606675
 30
0.0
  0
SPLINE
  5
125
100
AcDbEntity
  8
Layer_1
 62
7
100
AcDbSpline
 70
8
 71
3
 72
8
 73
4
 74
0
 40
0
 40
0
 40
0
 40
0
 40
1
 40
1
 40
1
 40
1
 10
117.353233
 20
3.606675
 30
0.0
 10
116.861004
 20
3.890864
 30
0.0
 10
116.557778
 20
4.416066
 30
0.0
 10
116.557778
 20
4.984443
 30
0.0
  0
SPLINE
  5
126
100
AcDbEntity
  8
Layer_1
 62
7
100
AcDbSpline
 70
8
 71
3
 72
8
 73
4
 74
0
 40
0
 40
0
 40
0
 40
0
 40
1
 40
1
 40
1
 40
1
 10
116.557778
 20
4.984443
 30
0.0
 10
116.557778
 20
5.552820
 30
0.0
 10
116.861004
 20
6.078022
 30
0.0
 10
117.353233
 20
6.362210
 30
0.0
  0
SPLINE
  5
127
100
AcDbEntity
  8
Layer_1
 62
7
100
AcDbSpline
 70
8
 71
3
 72
8
 73
4
 74
0
 40
0
 40
0
 40
0
 40
0
 40
1
 40
1
 40
1
 40
1
 10
117.353233
 20
6.362210
 30
0.0
 10
117.845462
 20
6.646399
 30
0.0
 10
118.451913
 20
6.646399
 30
0.0
 10
118.944142
 20
6.362210
 30
0.0
  0
SPLINE
  5
128
100
AcDbEntity
  8
Layer_1
 62
7
100
AcDbSpline
 70
8
 71
3
 72
8
 73
4
 74
0
 40
0
 40
0
 40
0
 40
0
 40
1
 40
1
 40
1
 40
1
 10
118.944142
 20
6.362210
 30
0.0
 10
119.436371
 20
6.078022
 30
0.0
 10
119.739596
 20
5.552820
 30
0.0
 10
119.739596
 20
4.984443
 30
0.0
  0
LWPOLYLINE
  5
129
100
AcDbEntity
  8
Layer_1
 62
7
100
AcDbPolyline
 90
2
 70
0
 10
119.739596
 20
33.584445
 30
0.0
 10
119.739596
 20
33.584445
 30
0.0
  0
LWPOLYLINE
  5
12a
100
AcDbEntity
  8
Layer_1
 62
7
100
AcDbPolyline
 90
2
 70
0
 10
119.739596
 20
4.984443
 30
0.0
 10
119.739596
 20
4.984443
 30
0.0
  0
LWPOLYLINE
  5
12b
100
AcDbEntity
  8
Layer_1
 62
7
100
AcDbPolyline
 90
5
 70
0
 10
27.913087
 20
23.800792
 30
0.0
 10
53.363584
 20
23.800792
 30
0.0
 10
53.363584
 20
21.018074
 30
0.0
 10
27.913087
 20
21.018074
 30
0.0
 10
27.913087
 20
23.800792
 30
0.0
  0
SPLINE
  5
12c
100
AcDbEntity
  8
Layer_1
 62
7
100
AcDbSpline
 70
8
 71
3
 72
8
 73
4
 74
0
 40
0
 40
0
 40
0
 40
0
 40
1
 40
1
 40
1
 40
1
 10
-30.760201
 20
12.137583
 30
0.0
 10
-30.760201
 20
10.019467
 30
0.0
 10
-31.890202
 20
8.062247
 30
0.0
 10
-33.724545
 20
7.003190
 30
0.0
  0
SPLINE
  5
12d
100
AcDbEntity
  8
Layer_1
 62
7
100
AcDbSpline
 70
8
 71
3
 72
8
 73
4
 74
0
 40
0
 40
0
 40
0
 40
0
 40
1
 40
1
 40
1
 40
1
 10
-33.724545
 20
7.003190
 30
0.0
 10
-35.558887
 20
5.944132
 30
0.0
 10
-37.818890
 20
5.944132
 30
0.0
 10
-39.653232
 20
7.003190
 30
0.0
  0
SPLINE
  5
12e
100
AcDbEntity
  8
Layer_1
 62
7
100
AcDbSpline
 70
8
 71
3
 72
8
 73
4
 74
0
 40
0
 40
0
 40
0
 40
0
 40
1
 40
1
 40
1
 40
1
 10
-39.653232
 20
7.003190
 30
0.0
 10
-41.487575
 20
8.062247
 30
0.0
 10
-42.617576
 20
10.019467
 30
0.0
 10
-42.617576
 20
12.137583
 30
0.0
  0
SPLINE
  5
12f
100
AcDbEntity
  8
Layer_1
 62
7
100
AcDbSpline
 70
8
 71
3
 72
8
 73
4
 74
0
 40
0
 40
0
 40
0
 40
0
 40
1
 40
1
 40
1
 40
1
 10
-42.617576
 20
12.137583
 30
0.0
 10
-42.617576
 20
14.255699
 30
0.0
 10
-41.487575
 20
16.212919
 30
0.0
 10
-39.653232
 20
17.271977
 30
0.0
  0
SPLINE
  5
130
100
AcDbEntity
  8
Layer_1
 62
7
100
AcDbSpline
 70
8
 71
3
 72
8
 73
4
 74
0
 40
0
 40
0
 40
0
 40
0
 40
1
 40
1
 40
1
 40
1
 10
-39.653232
 20
17.271977
 30
0.0
 10
-37.818890
 20
18.331035
 30
0.0
 10
-35.558887
 20
18.331035
 30
0.0
 10
-33.724545
 20
17.271977
 30
0.0
  0
SPLINE
  5
131
100
AcDbEntity
  8
Layer_1
 62
7
100
AcDbSpline
 70
8
 71
3
 72
8
 73
4
 74
0
 40
0
 40
0
 40
0
 40
0
 40
1
 40
1
 40
1
 40
1
 10
-33.724545
 20
17.271977
 30
0.0
 10
-31.890202
 20
16.212919
 30
0.0
 10
-30.760201
 20
14.255699
 30
0.0
 10
-30.760201
 20
12.137583
 30
0.0
  0
LWPOLYLINE
  5
132
100
AcDbEntity
  8
Layer_1
 62
7
100
AcDbPolyline
 90
10
 70
0
 10
-7.055556
 20
61.242229
 30
0.0
 10
-7.055556
 20
49.388896
 30
0.0
 10
0.000000
 20
49.388896
 30
0.0
 10
0.000000
 20
38.100007
 30
0.0
 10
-7.055556
 20
38.100007
 30
0.0
 10
-7.055556
 20
25.400007
 30
0.0
 10
0.000000
 20
25.400007
 30
0.0
 10
0.000000
 20
12.700001
 30
0.0
 10
-7.055556
 20
12.700001
 30
0.0
 10
-7.055556
 20
0.000001
 30
0.0
  0
SPLINE
  5
133
100
AcDbEntity
  8
Layer_1
 62
7
100
AcDbSpline
 70
8
 71
3
 72
8
 73
4
 74
0
 40
0
 40
0
 40
0
 40
0
 40
1
 40
1
 40
1
 40
1
 10
-8.746868
 20
53.906472
 30
0.0
 10
-8.746868
 20
51.788356
 30
0.0
 10
-9.876869
 20
49.831136
 30
0.0
 10
-11.711211
 20
48.772078
 30
0.0
  0
SPLINE
  5
134
100
AcDbEntity
  8
Layer_1
 62
7
100
AcDbSpline
 70
8
 71
3
 72
8
 73
4
 74
0
 40
0
 40
0
 40
0
 40
0
 40
1
 40
1
 40
1
 40
1
 10
-11.711211
 20
48.772078
 30
0.0
 10
-13.545554
 20
47.713020
 30
0.0
 10
-15.805557
 20
47.713020
 30
0.0
 10
-17.639899
 20
48.772078
 30
0.0
  0
SPLINE
  5
135
100
AcDbEntity
  8
Layer_1
 62
7
100
AcDbSpline
 70
8
 71
3
 72
8
 73
4
 74
0
 40
0
 40
0
 40
0
 40
0
 40
1
 40
1
 40
1
 40
1
 10
-17.639899
 20
48.772078
 30
0.0
 10
-19.474241
 20
49.831136
 30
0.0
 10
-20.604243
 20
51.788356
 30
0.0
 10
-20.604243
 20
53.906472
 30
0.0
  0
SPLINE
  5
136
100
AcDbEntity
  8
Layer_1
 62
7
100
AcDbSpline
 70
8
 71
3
 72
8
 73
4
 74
0
 40
0
 40
0
 40
0
 40
0
 40
1
 40
1
 40
1
 40
1
 10
-20.604243
 20
53.906472
 30
0.0
 10
-20.604243
 20
56.024588
 30
0.0
 10
-19.474241
 20
57.981808
 30
0.0
 10
-17.639899
 20
59.040866
 30
0.0
  0
SPLINE
  5
137
100
AcDbEntity
  8
Layer_1
 62
7
100
AcDbSpline
 70
8
 71
3
 72
8
 73
4
 74
0
 40
0
 40
0
 40
0
 40
0
 40
1
 40
1
 40
1
 40
1
 10
-17.639899
 20
59.040866
 30
0.0
 10
-15.805557
 20
60.099923
 30
0.0
 10
-13.545554
 20
60.099923
 30
0.0
 10
-11.711211
 20
59.040866
 30
0.0
  0
SPLINE
  5
138
100
AcDbEntity
  8
Layer_1
 62
7
100
AcDbSpline
 70
8
 71
3
 72
8
 73
4
 74
0
 40
0
 40
0
 40
0
 40
0
 40
1
 40
1
 40
1
 40
1
 10
-11.711211
 20
59.040866
 30
0.0
 10
-9.876869
 20
57.981808
 30
0.0
 10
-8.746868
 20
56.024588
 30
0.0
 10
-8.746868
 20
53.906472
 30
0.0
  0
LWPOLYLINE
  5
139
100
AcDbEntity
  8
Layer_1
 62
7
100
AcDbPolyline
 90
2
 70
0
 10
-30.760201
 20
12.137583
 30
0.0
 10
-30.760201
 20
12.137583
 30
0.0
  0
LWPOLYLINE
  5
13a
100
AcDbEntity
  8
Layer_1
 62
7
100
AcDbPolyline
 90
2
 70
0
 10
-8.746868
 20
53.906472
 30
0.0
 10
-8.746868
 20
53.906472
 30
0.0
  0
ENDSEC
  0
SECTION
  2
OBJECTS
  0
DICTIONARY
  5
C
330
0
100
AcDbDictionary
  3
ACAD_GROUP
350
D
  3
ACAD_MLINESTYLE
350
17
  0
DICTIONARY
  5
D
330
C
100
AcDbDictionary
  0
DICTIONARY
  5
1A
330
C
100
AcDbDictionary
  0
DICTIONARY
  5
17
330
C
100
AcDbDictionary
  3
STANDARD
350
18
  0
DICTIONARY
  5
19
330
C
100
AcDbDictionary
  0
ENDSEC
  0
EOF
